<svg xmlns="http://www.w3.org/2000/svg" viewBox="0 0 800 800">
  <g stroke-linecap="round" stroke-linejoin="round" fill="none">
    <rect width="100" height="100" x="634" y="634" stroke-width="4" stroke="#ff3895" opacity="0.1" transform="rotate(100,400,400)"></rect>
    <rect width="116.67" height="116.67" x="602" y="602" stroke-width="5" stroke="#f645a1" opacity="0.175" transform="rotate(91.67,400,400)"></rect>
    <rect width="133.33" height="133.33" x="570" y="570" stroke-width="6" stroke="#ed50ab" opacity="0.25" transform="rotate(83.33,400,400)"></rect>
    <rect width="150" height="150" x="538" y="538" stroke-width="7" stroke="#e35ab5" opacity="0.325" transform="rotate(75,400,400)"></rect>
    <rect width="166.67" height="166.67" x="506" y="506" stroke-width="8" stroke="#d962bf" opacity="0.4" transform="rotate(66.67,400,400)"></rect>
    <rect width="183.33" height="183.33" x="474" y="474" stroke-width="9" stroke="#cf6ac8" opacity="0.475" transform="rotate(58.33,400,400)"></rect>
    <rect width="200" height="200" x="442" y="442" stroke-width="10" stroke="#c472d1" opacity="0.55" transform="rotate(50,400,400)"></rect>
    <rect width="216.67" height="216.67" x="410" y="410" stroke-width="11" stroke="#b879d9" opacity="0.625" transform="rotate(41.67,400,400)"></rect>
    <rect width="233.33" height="233.33" x="378" y="378" stroke-width="12" stroke="#ab7fe1" opacity="0.7" transform="rotate(33.33,400,400)"></rect>
    <rect width="250" height="250" x="346" y="346" stroke-width="13" stroke="#9e86e9" opacity="0.775" transform="rotate(25,400,400)"></rect>
    <rect width="266.67" height="266.67" x="314" y="314" stroke-width="14" stroke="#8f8cf1" opacity="0.85" transform="rotate(16.67,400,400)"></rect>
    <rect width="283.33" height="283.33" x="282" y="282" stroke-width="15" stroke="#7e91f8" opacity="0.925" transform="rotate(8.33,400,400)"></rect>
    <rect width="300" height="300" x="250" y="250" stroke-width="16" stroke="#6b97ff" opacity="1" transform="rotate(0,400,400)"></rect>
  </g>
</svg>
